<svg width="25" height="25" viewBox="0 0 25 25" fill="none" xmlns="http://www.w3.org/2000/svg">
<g id="Social Icons" clip-path="url(#clip0_83_2442)">
<path id="Vector" fill-rule="evenodd" clip-rule="evenodd" d="M12.5099 0.5C5.86875 0.5 0.5 5.90833 0.5 12.5992C0.5 17.9475 3.93994 22.4748 8.71205 24.0771C9.30869 24.1976 9.52724 23.8168 9.52724 23.4965C9.52724 23.216 9.50757 22.2545 9.50757 21.2527C6.1667 21.974 5.47099 19.8104 5.47099 19.8104C4.93409 18.4082 4.13858 18.0478 4.13858 18.0478C3.04511 17.3066 4.21823 17.3066 4.21823 17.3066C5.43117 17.3868 6.06763 18.5486 6.06763 18.5486C7.14118 20.3913 8.87111 19.8707 9.56706 19.5501C9.66638 18.7688 9.98473 18.228 10.3228 17.9276C7.65817 17.6471 4.85469 16.6055 4.85469 11.958C4.85469 10.6359 5.3316 9.55428 6.08729 8.71304C5.96807 8.41263 5.5504 7.17043 6.20677 5.50787C6.20677 5.50787 7.22083 5.1873 9.50732 6.74981C10.4863 6.48497 11.4958 6.35024 12.5099 6.34911C13.524 6.34911 14.5577 6.48948 15.5123 6.74981C17.799 5.1873 18.8131 5.50787 18.8131 5.50787C19.4695 7.17043 19.0515 8.41263 18.9323 8.71304C19.7079 9.55428 20.1652 10.6359 20.1652 11.958C20.1652 16.6055 17.3617 17.6269 14.6772 17.9276C15.1148 18.3081 15.4924 19.0292 15.4924 20.1711C15.4924 21.7936 15.4727 23.0957 15.4727 23.4962C15.4727 23.8168 15.6915 24.1976 16.2879 24.0774C21.06 22.4745 24.4999 17.9475 24.4999 12.5992C24.5196 5.90833 19.1312 0.5 12.5099 0.5Z" fill="#0F0F0F"/>
</g>
<defs>
<clipPath id="clip0_83_2442">
<rect width="24" height="24" fill="white" transform="translate(0.5 0.5)"/>
</clipPath>
</defs>
</svg>
