<svg width="331" height="65" viewBox="0 0 331 65" fill="none" xmlns="http://www.w3.org/2000/svg">
<path opacity="0.3" d="M225.809 0.1147C225.218 1.03227 209.574 2.40863 202.637 2.29394C199.022 2.17924 195.701 2.52333 195.258 3.09682C194.446 4.12909 178.876 5.04666 142.791 6.07893C103.68 7.2259 89.4379 7.91408 84.1248 8.94635C81.0993 9.51983 76.5978 10.3227 74.1627 10.6668C62.1343 12.2726 36.3803 15.9429 29.6651 16.9751C21.6215 18.3515 4.13245 18.6956 3.02554 17.6633C1.91864 16.5163 0 18.2368 0 20.3013C0 21.4483 0.442762 23.2835 1.03311 24.5451C1.84484 26.1509 1.84484 27.0684 1.25449 28.2154C0.664143 29.3624 0.737937 30.0506 1.54967 30.7387C4.7228 33.9503 17.6367 35.3266 30.6244 33.8356C34.683 33.4915 41.0293 32.8033 44.6452 32.3445C48.3349 32.0004 61.0274 30.5093 72.9082 28.9036C89.4379 26.8391 102.573 26.0362 128.77 25.348C155.852 24.7745 163.084 24.3157 163.084 23.1688C163.084 20.8748 164.117 20.416 166.479 21.563C168.102 22.2512 168.25 22.5953 167.143 22.71C166.331 22.8247 165.224 22.9394 164.781 22.8247C164.265 22.71 163.822 23.1688 163.822 23.8569C163.822 25.2333 206.401 24.0863 208.098 22.5953C208.836 22.0218 207.803 21.563 205.294 21.563C203.154 21.563 201.531 21.2189 201.678 20.6454C201.9 20.1866 204.63 20.0719 207.877 20.3013C211.935 20.6454 212.969 20.9895 211.419 21.563C210.238 21.9071 223.3 22.5953 240.567 23.0541C304.251 24.6598 323.954 25.6921 323.954 27.4125C323.954 27.986 321.962 28.2154 319.527 27.8713C317.018 27.6419 315.099 27.8713 315.099 28.4448C315.099 29.8212 318.42 31.1975 319.379 30.28C319.748 29.9359 320.486 30.3947 321.003 31.3122C321.814 32.8033 321.593 33.0327 319.822 33.2621C318.641 33.2621 317.091 33.3768 316.427 33.2621C314.509 33.0327 314.804 34.0649 317.018 35.4413C320.412 37.3912 318.494 37.7352 310.967 36.3589C302.849 34.9825 301.447 34.2943 306.318 33.9503C311.483 33.7209 312.073 33.6062 312.516 32.918C312.738 32.5739 310.229 32.2298 306.982 32.2298C302.333 32.3445 301.078 32.6886 301.373 33.8356C301.595 34.6384 301.3 35.3266 300.635 35.3266C300.045 35.3266 299.676 34.8678 299.971 34.1796C300.193 33.6062 299.16 32.6886 297.61 32.1151C292.518 30.1653 285.508 28.9036 285.139 29.8212C284.917 30.28 283.884 30.1653 282.851 29.4771C281.67 28.7889 275.398 28.5595 266.469 29.0183C258.499 29.3624 244.847 29.7065 236.14 29.5918C209.648 29.5918 151.129 31.8857 134.304 33.6062C95.6366 37.7352 62.6508 42.3231 54.3121 44.6171C51.9508 45.3052 49.8845 45.5346 49.6631 45.3052C49.5156 44.9611 51.2866 44.1583 53.648 43.4701C56.0094 42.6672 58.9612 41.7496 60.1418 41.1762C62.2081 40.2586 62.2081 40.1439 60.5108 40.0292C59.4777 40.0292 55.4928 40.7174 51.6556 41.6349C47.8183 42.5525 40.3651 44.1583 35.052 45.0758C29.8126 45.9934 24.2781 47.2551 22.876 47.9433C21.474 48.5167 17.3415 49.3196 13.7994 49.7784L7.30557 50.4666L7.74834 56.3161C7.96972 59.8717 8.63386 62.8538 9.3718 63.6567C10.7739 65.2625 24.2043 65.4919 38.0037 64.0008C44.7928 63.3126 43.3907 63.1979 29.7389 63.1979C20.6622 63.1979 13.1353 62.9685 12.9139 62.6245C12.6925 62.3951 14.6111 61.9363 17.1201 61.9363C19.7029 61.8216 27.0823 61.4775 33.5761 61.2481C40.07 61.0187 46.1948 60.3305 47.228 59.6423C48.3349 59.0689 51.9508 58.1513 55.3453 57.6925C58.8136 57.2337 61.9129 56.6602 62.2819 56.3161C62.6508 55.972 65.3074 55.628 68.1854 55.628C72.9082 55.628 73.0557 55.628 70.104 54.8251C66.8571 54.0222 67.5212 53.4487 72.0964 53.1046C73.4247 53.1046 74.6792 52.6458 74.9744 52.187C75.2696 51.7283 77.0406 51.3842 78.8854 51.3842C81.0255 51.3842 81.911 51.0401 81.3206 50.3519C80.7303 49.8931 86.0434 48.8608 94.0869 47.9433C101.614 47.1404 107.96 46.7963 108.255 47.2551C108.477 47.5992 107.001 47.9433 104.935 47.9433C102.13 47.9433 101.097 48.4021 101.097 49.549C101.097 50.8107 99.1049 51.2695 92.4635 51.843C81.8372 52.6458 75.7861 53.6781 75.122 54.5957C74.4578 55.628 77.5572 55.3986 105.156 52.4164C145.816 48.058 163.822 47.1404 210.312 46.911C235.697 46.911 262.263 46.4522 269.347 46.1081C276.431 45.764 286.393 45.9934 291.485 46.4522C297.831 47.1404 300.857 47.1404 301.3 46.3375C301.669 45.5346 302.038 45.6493 302.48 46.6816C302.923 47.7139 305.063 48.5167 308.753 48.8608C312.295 49.2049 314.214 49.8931 314.14 50.696C314.066 51.4989 315.837 52.0723 319.158 52.3017C322.7 52.5311 323.954 52.9899 323.216 53.6781C322.257 54.5957 322.331 54.8251 323.438 54.8251C324.176 54.8251 324.914 53.9075 325.209 52.7605C325.43 51.7283 326.389 49.7784 327.275 48.5167C329.12 45.9934 330.374 39.9145 329.12 39.9145C328.087 39.9145 328.234 36.8177 329.341 36.1295C329.858 35.7854 329.341 34.409 327.792 32.2298C325.725 29.2477 325.578 28.5595 326.537 27.2978C327.127 26.495 327.496 25.4627 327.275 25.0039C327.054 24.4304 327.57 23.2835 328.308 22.4806C330.153 20.416 331.555 15.0253 330.522 13.993C330.005 13.5342 330.079 12.846 330.596 11.8138C331.407 10.3227 331.186 9.74923 328.16 5.96424C325.356 2.29394 317.091 1.60575 273.406 1.49106C249.496 1.37636 229.056 0.917572 228.022 0.458786C226.989 0 225.956 -0.114693 225.809 0.1147ZM310.671 6.65241C310.671 7.22589 310.376 7.79938 309.933 7.79938C309.564 7.79938 309.196 7.22589 309.196 6.65241C309.196 5.96423 309.564 5.50545 309.933 5.50545C310.376 5.50545 310.671 5.96423 310.671 6.65241ZM316.87 11.8138C319.01 14.3371 317.239 14.6812 309.196 13.6489L302.185 12.7313L308.31 12.5019C311.778 12.5019 314.361 11.9285 314.361 11.2403C314.361 9.63453 315.173 9.86392 316.87 11.8138ZM295.175 12.1579C295.175 12.6166 294.511 13.0754 293.773 13.0754C292.961 13.0754 292.518 12.6166 292.666 12.1579C292.887 11.6991 293.551 11.2403 294.142 11.2403C294.732 11.2403 295.175 11.6991 295.175 12.1579ZM301.078 12.6166C301.078 13.0754 300.119 13.5342 298.864 13.5342C297.684 13.5342 296.651 12.9607 296.651 12.3873C296.651 11.6991 297.684 11.355 298.864 11.4697C300.119 11.5844 301.078 12.1579 301.078 12.6166ZM252.374 15.4841C252.374 16.0576 248.832 16.2869 244.478 16.0576C229.72 15.4841 228.318 15.14 240.42 14.9106C246.987 14.7959 252.374 15.0253 252.374 15.4841ZM198.505 16.9751C194.225 17.4339 186.108 17.778 180.426 17.778C171.201 17.6633 170.759 17.6633 176.367 16.9751C179.835 16.631 187.952 16.2869 194.446 16.2869C205.811 16.1722 205.958 16.2869 198.505 16.9751ZM259.237 16.631C258.278 16.8604 256.802 16.8604 255.916 16.631C254.957 16.4016 255.695 16.1722 257.54 16.1722C259.385 16.1722 260.123 16.4016 259.237 16.631ZM269.937 16.631C268.757 16.8604 266.986 16.8604 265.879 16.631C264.698 16.4016 265.657 16.1722 267.871 16.1722C270.085 16.1722 271.044 16.4016 269.937 16.631ZM162.936 17.5486C162.494 18.2368 145.078 19.0397 114.011 19.7278C92.0945 20.1866 91.209 20.0719 105.23 19.2691C113.79 18.6956 123.383 18.0074 126.63 17.778C136.518 17.2045 163.379 16.9751 162.936 17.5486ZM166.552 17.6633C166.331 18.0074 165.667 18.1221 165.15 17.778C164.56 17.4339 164.781 17.0898 165.593 17.0898C166.405 16.9751 166.848 17.3192 166.552 17.6633ZM274.734 17.778C274.217 18.0074 273.332 18.0074 272.889 17.778C272.372 17.4339 272.741 17.2045 273.775 17.2045C274.808 17.2045 275.177 17.4339 274.734 17.778ZM200.276 20.6454C199.759 21.9071 197.767 21.7924 197.767 20.5307C197.767 19.8425 198.431 19.4985 199.169 19.6132C199.981 19.6132 200.424 20.1866 200.276 20.6454ZM217.47 19.9572C217.249 20.3013 216.584 20.416 216.068 20.0719C215.478 19.7278 215.699 19.3838 216.511 19.3838C217.322 19.2691 217.765 19.6132 217.47 19.9572ZM233.778 20.0719C233.04 20.3013 231.86 20.3013 231.196 20.0719C230.458 19.7278 231.048 19.4985 232.45 19.4985C233.852 19.4985 234.443 19.7278 233.778 20.0719ZM87.6669 21.2189C86.4862 21.4483 84.7151 21.4483 83.6082 21.2189C82.4275 20.9895 83.3869 20.7601 85.6007 20.7601C87.8145 20.7601 88.7738 20.9895 87.6669 21.2189ZM143.971 21.563C145.521 21.563 146.849 22.0218 146.849 22.5953C146.849 23.1688 144.636 23.6275 141.905 23.6275C139.101 23.6275 137.478 23.3981 138.216 23.0541C138.88 22.8247 139.249 22.0218 138.953 21.3336C138.658 20.416 138.953 20.3013 139.765 20.7601C140.503 21.2189 142.348 21.563 143.971 21.563ZM191.126 21.563C189.65 23.0541 188.174 23.0541 188.174 21.563C188.174 20.8748 189.059 20.416 190.24 20.416C191.79 20.416 192.011 20.6454 191.126 21.563ZM307.203 21.9071C307.424 21.6777 307.793 22.0218 308.089 22.71C308.458 23.6275 307.72 23.8569 305.801 23.6275C304.325 23.3981 302.923 22.71 302.775 21.9071C302.554 20.8748 303.071 20.7601 304.694 21.563C305.875 22.0218 307.056 22.2512 307.203 21.9071ZM75.6385 22.71C69.0709 23.9716 59.9943 25.0039 60.9536 24.3157C62.0605 23.5128 72.7606 21.9071 76.7454 21.9071C79.6972 21.9071 79.5496 21.9071 75.6385 22.71ZM105.746 22.3659C105.23 22.5953 104.344 22.5953 103.902 22.3659C103.385 22.0218 103.754 21.7924 104.787 21.7924C105.82 21.7924 106.189 22.0218 105.746 22.3659ZM151.277 22.71C149.801 24.201 147.366 24.201 147.956 22.71C148.178 22.0218 149.285 21.563 150.392 21.563C151.941 21.563 152.163 21.7924 151.277 22.71ZM159.394 22.0218C159.394 22.3659 159.099 22.9394 158.656 23.2835C158.287 23.6275 157.918 23.3981 157.918 22.8247C157.918 22.1365 158.287 21.563 158.656 21.563C159.099 21.563 159.394 21.7924 159.394 22.0218ZM178.802 22.3659C177.843 22.5953 176.367 22.5953 175.481 22.3659C174.522 22.1365 175.26 21.9071 177.105 21.9071C178.95 21.9071 179.688 22.1365 178.802 22.3659ZM291.485 22.71C291.485 23.2835 291.116 23.8569 290.673 23.8569C290.304 23.8569 290.157 23.2835 290.378 22.71C290.6 22.0218 290.968 21.563 291.19 21.563C291.337 21.563 291.485 22.0218 291.485 22.71ZM318.051 23.8569C318.051 24.4304 317.756 25.0039 317.313 25.0039C316.944 25.0039 316.575 24.4304 316.575 23.8569C316.575 23.1688 316.944 22.71 317.313 22.71C317.756 22.71 318.051 23.1688 318.051 23.8569ZM191.126 35.7854C191.716 36.0148 186.403 36.1295 179.319 36.1295C169.578 36.0148 168.028 35.9001 173.046 35.4413C179.392 34.7531 188.764 34.9825 191.126 35.7854ZM146.48 37.7352C146.628 38.0793 139.913 38.9969 131.5 39.7998C118.439 41.0615 104.344 42.5525 84.4938 45.0758C72.5392 46.5669 67.8902 46.7963 67.8902 45.9934C67.8902 45.4199 69.2923 44.9611 71.0633 44.7318C72.7606 44.6171 79.9923 43.6995 87.0765 42.7819C94.1607 41.8643 103.828 40.8321 108.477 40.3733C113.126 39.9145 118.144 39.4557 119.546 39.2263C120.948 39.1116 125.818 38.5381 130.246 38.194C134.747 37.7352 138.437 37.2765 138.585 37.0471C138.88 36.5883 146.111 37.2765 146.48 37.7352ZM153.343 37.2765C152.163 37.5059 150.392 37.5059 149.285 37.2765C148.104 37.0471 149.063 36.8177 151.277 36.8177C153.491 36.8177 154.45 37.0471 153.343 37.2765ZM271.044 39.5704C270.085 39.7998 268.461 39.7998 267.354 39.5704C266.174 39.341 266.986 39.1116 268.978 39.1116C271.044 39.1116 271.93 39.341 271.044 39.5704ZM316.575 39.9145C316.575 40.488 316.058 41.0615 315.468 41.0615C314.878 41.0615 314.361 40.488 314.361 39.9145C314.361 39.2263 314.878 38.7675 315.468 38.7675C316.058 38.7675 316.575 39.2263 316.575 39.9145ZM197.251 40.7174C196.734 40.9468 195.701 40.9468 195.037 40.7174C194.299 40.3733 194.742 40.1439 195.922 40.1439C197.177 40.1439 197.693 40.3733 197.251 40.7174ZM208.689 40.7174C207.951 40.9468 206.622 40.9468 205.737 40.7174C204.777 40.488 205.368 40.2586 206.991 40.2586C208.615 40.1439 209.353 40.3733 208.689 40.7174ZM228.613 40.7174C227.875 40.9468 226.694 40.9468 226.03 40.7174C225.292 40.3733 225.882 40.1439 227.285 40.1439C228.687 40.1439 229.277 40.3733 228.613 40.7174ZM183.599 41.8643C179.688 42.0937 173.046 42.0937 168.84 41.8643C164.634 41.7496 167.881 41.5202 175.998 41.5202C184.115 41.5202 187.51 41.7496 183.599 41.8643ZM296.651 42.2084C296.651 42.7819 296.503 43.3554 296.355 43.3554C296.134 43.3554 295.765 42.7819 295.544 42.2084C295.322 41.5202 295.47 41.0615 295.839 41.0615C296.282 41.0615 296.651 41.5202 296.651 42.2084ZM149.801 43.0113C148.399 43.2407 146.48 44.0436 145.595 44.7318C144.636 45.4199 143.676 45.6493 143.381 45.1905C142.348 43.5848 145.005 42.2084 148.694 42.4378C151.498 42.5525 151.794 42.6672 149.801 43.0113ZM197.251 43.0113C196.734 43.2407 195.848 43.2407 195.406 43.0113C194.889 42.6672 195.258 42.4378 196.291 42.4378C197.324 42.4378 197.693 42.6672 197.251 43.0113ZM213.78 42.8966C213.559 43.2407 212.895 43.3554 212.378 43.0113C211.788 42.6672 212.009 42.3231 212.821 42.3231C213.633 42.2084 214.075 42.5525 213.78 42.8966ZM301.3 43.0113C300.783 43.2407 299.898 43.2407 299.455 43.0113C298.938 42.6672 299.307 42.4378 300.34 42.4378C301.373 42.4378 301.742 42.6672 301.3 43.0113ZM140.06 44.1583C138.511 44.3877 135.854 44.3877 134.157 44.1583C132.386 43.9289 133.64 43.6995 136.887 43.6995C140.134 43.6995 141.536 43.9289 140.06 44.1583ZM127.515 45.3052C125.966 45.5346 123.309 45.5346 121.612 45.3052C119.841 45.0758 121.095 44.8464 124.342 44.8464C127.589 44.8464 128.991 45.0758 127.515 45.3052ZM116.077 46.4522C114.749 46.6816 112.535 46.6816 111.281 46.4522C109.953 46.2228 110.986 45.9934 113.642 45.9934C116.299 45.9934 117.332 46.2228 116.077 46.4522ZM317.313 47.4845C317.313 47.7139 316.796 47.9433 316.206 47.9433C315.616 47.9433 315.099 47.4845 315.099 46.7963C315.099 46.2228 315.616 45.9934 316.206 46.3375C316.796 46.7963 317.313 47.2551 317.313 47.4845ZM82.1324 47.5992C81.6158 47.8286 80.7303 47.8286 80.2875 47.5992C79.771 47.2551 80.1399 47.0257 81.173 47.0257C82.2062 47.0257 82.5751 47.2551 82.1324 47.5992ZM320.265 50.2372C320.265 50.8107 319.01 51.3842 317.534 51.2695C315.025 51.1548 314.951 51.0401 316.575 50.2372C319.231 48.9755 320.265 48.9755 320.265 50.2372ZM68.9971 51.3842C68.7757 51.9577 67.0047 52.4164 65.086 52.3017L61.6177 52.187L65.3074 51.3842C67.3736 50.9254 69.0709 50.4666 69.2185 50.4666C69.3661 50.3519 69.2185 50.696 68.9971 51.3842ZM23.614 54.7104C24.7209 55.1692 23.0236 55.5133 19.3339 55.5133C16.0132 55.5133 13.6518 55.1692 14.1684 54.5957C15.2753 53.5634 21.0312 53.5634 23.614 54.7104ZM38.3727 54.8251C38.3727 55.3986 38.0775 55.972 37.6348 55.972C37.2658 55.972 36.8968 55.3986 36.8968 54.8251C36.8968 54.1369 37.2658 53.6781 37.6348 53.6781C38.0775 53.6781 38.3727 54.1369 38.3727 54.8251Z" fill="#F5631F"/>
</svg>
