<svg width="25" height="25" viewBox="0 0 25 25" fill="none" xmlns="http://www.w3.org/2000/svg">
<g id="Social Icons" clip-path="url(#clip0_83_2446)">
<path id="Vector" fill-rule="evenodd" clip-rule="evenodd" d="M24.5 12.5C24.5 19.1274 19.1274 24.5 12.5 24.5C5.87258 24.5 0.5 19.1274 0.5 12.5C0.5 5.87258 5.87258 0.5 12.5 0.5C19.1274 0.5 24.5 5.87258 24.5 12.5ZM12.93 9.35893C11.7628 9.8444 9.43014 10.8492 5.93189 12.3733C5.36383 12.5992 5.06626 12.8202 5.03917 13.0363C4.99339 13.4015 5.45071 13.5453 6.07347 13.7411C6.15818 13.7678 6.24595 13.7954 6.33594 13.8246C6.94864 14.0238 7.77283 14.2568 8.20129 14.266C8.58994 14.2744 9.02373 14.1142 9.50264 13.7853C12.7712 11.579 14.4584 10.4638 14.5643 10.4398C14.639 10.4228 14.7426 10.4015 14.8128 10.4638C14.8829 10.5262 14.876 10.6443 14.8686 10.676C14.8233 10.8691 13.0281 12.5381 12.0991 13.4018C11.8095 13.671 11.6041 13.862 11.5621 13.9056C11.468 14.0033 11.3721 14.0958 11.28 14.1846C10.7108 14.7333 10.2839 15.1448 11.3036 15.8168C11.7936 16.1397 12.1858 16.4067 12.577 16.6731C13.0042 16.9641 13.4303 17.2543 13.9816 17.6157C14.1221 17.7077 14.2562 17.8034 14.3869 17.8965C14.8841 18.251 15.3307 18.5694 15.8826 18.5186C16.2032 18.4891 16.5345 18.1876 16.7027 17.2884C17.1002 15.1631 17.8816 10.5585 18.0622 8.66097C18.078 8.49473 18.0581 8.28197 18.0422 8.18857C18.0262 8.09518 17.9928 7.96211 17.8714 7.8636C17.7276 7.74694 17.5056 7.72234 17.4064 7.72408C16.955 7.73203 16.2626 7.97282 12.93 9.35893Z" fill="#0F0F0F"/>
</g>
<defs>
<clipPath id="clip0_83_2446">
<rect width="24" height="24" fill="white" transform="translate(0.5 0.5)"/>
</clipPath>
</defs>
</svg>
